<svg xmlns="http://www.w3.org/2000/svg" x="0px" y="0px" width="100" height="100" viewBox="0,0,256,256">
<g fill="none" fill-rule="none" stroke="none" stroke-width="none" stroke-linecap="none" stroke-linejoin="none" stroke-miterlimit="10" stroke-dasharray="" stroke-dashoffset="0" font-family="none" font-weight="none" font-size="none" text-anchor="none" style="mix-blend-mode: normal"><g transform="scale(10.66667,10.66667)"><path d="M11.833,8.999c0.079,0.004 0.643,0.051 0.721,0.057c3.2,0.255 5.847,2.005 6.56,4.665c0.974,3.634 -2.029,7.601 -6.701,8.853c-4.672,1.252 -9.256,-0.682 -10.23,-4.317c-0.508,-1.896 -0.014,-3.792 1.317,-5.437" fill="none" fill-rule="nonzero" stroke="#ac80d3" stroke-width="2" stroke-linecap="round" stroke-linejoin="round"></path><path d="M10.138,14c4.063,-1.089 7.879,-0.043 8.516,2.333c0.636,2.376 -2.145,5.189 -6.208,6.278c-4.063,1.089 -7.879,0.043 -8.516,-2.333c-0.636,-2.376 2.145,-5.189 6.208,-6.278z" fill="none" fill-rule="nonzero" stroke="#ac80d3" stroke-width="2" stroke-linecap="round" stroke-linejoin="round"></path><path d="M6,8c0,0 1.307,2.685 4.191,2c2.768,-0.658 1.809,-4.388 0.758,-5.755c-0.761,-0.988 -2.314,-2.245 -3.811,-2.245c-0.737,0 -1.873,0 -2.857,1.294c-2.218,2.919 -0.817,9.434 -0.817,9.434" fill="none" fill-rule="nonzero" stroke="#ac80d3" stroke-width="2" stroke-linecap="round" stroke-linejoin="round"></path><path d="M13,8.999c1.244,-0.019 5.449,0.207 7.5,-0.256c2.118,-0.478 2.5,-1.854 2.5,-3.049c0,-0.956 -0.647,-2.694 -3,-2.694c-4.238,0 -7.955,2.48 -8.053,2.53" fill="none" fill-rule="nonzero" stroke="#ac80d3" stroke-width="2" stroke-linecap="round" stroke-linejoin="round"></path><ellipse cx="8" cy="19.5" rx="1" ry="1.5" fill="#ac80d3" fill-rule="evenodd" stroke="none" stroke-width="1" stroke-linecap="butt" stroke-linejoin="miter"></ellipse><ellipse cx="15" cy="17.5" rx="1" ry="1.5" fill="#ac80d3" fill-rule="evenodd" stroke="none" stroke-width="1" stroke-linecap="butt" stroke-linejoin="miter"></ellipse><path d="M11.886,19.318c0.551,-0.096 1.05,0.123 1.114,0.49c0.064,0.367 -0.33,0.743 -0.881,0.84c-0.55,0.096 -1.049,-0.123 -1.114,-0.49c-0.064,-0.367 0.331,-0.744 0.881,-0.84z" fill="#ac80d3" fill-rule="evenodd" stroke="none" stroke-width="1" stroke-linecap="butt" stroke-linejoin="miter"></path><path d="M4.5,21.287c0,0 -1.5,-2.388 1,-4.787c1.988,-1.908 4.242,-2.772 5,-2.931c4,-0.841 7.503,0.163 7.691,3.163c0.912,-0.674 1.309,-1.232 1.309,-1.232l-3.782,-6c0,0 5.834,-0.166 6.558,-2c0.724,-1.834 0.724,-3.021 0.224,-3.76c-0.5,-0.74 -3.875,-1.24 -4.688,-0.74c-0.812,0.5 -5.865,2.5 -5.865,2.5c0,0 -1.947,-4 -3.447,-3.5c-1.5,0.5 -4,0.5 -4.5,1.5c-0.5,1 -0.5,9 -0.5,9c0,0 -2.025,2.588 -1.513,4.692c0.513,2.103 2.513,4.095 2.513,4.095z" fill="#ac80d3" fill-rule="evenodd" stroke="none" stroke-width="1" stroke-linecap="butt" stroke-linejoin="miter" opacity="0.3"></path></g></g>
</svg>